<?xml version="1.0" encoding="utf-8"?>
<!-- Generator: Adobe Illustrator 18.1.1, SVG Export Plug-In . SVG Version: 6.00 Build 0)  -->
<!DOCTYPE svg PUBLIC "-//W3C//DTD SVG 1.1//EN" "http://www.w3.org/Graphics/SVG/1.1/DTD/svg11.dtd">
<svg version="1.1" id="Camada_1" xmlns="http://www.w3.org/2000/svg" xmlns:xlink="http://www.w3.org/1999/xlink" x="0px" y="0px"
	 width="220px" height="55.4px" viewBox="0 0 220 55.4" enable-background="new 0 0 220 55.4" xml:space="preserve" preserveAspectRatio="xMidYMid slice">
<path fill-rule="evenodd" clip-rule="evenodd" fill="#333333" d="M5.4,21.7v19.5h7.2V26c0-1.3,0.2-2.3,0.6-3.1
	c0.4-0.8,0.8-1.4,1.3-1.8c0.5-0.4,1.1-0.7,1.6-0.9c0.6-0.2,1-0.2,1.3-0.2c1.1,0,2,0.2,2.6,0.6s1,0.9,1.3,1.5
	c0.3,0.6,0.4,1.3,0.4,2.1c0,0.8,0.1,1.5,0.1,2.3v14.7H29V26.6c0-0.8,0.1-1.6,0.2-2.4c0.1-0.8,0.4-1.5,0.7-2.1
	c0.4-0.6,0.8-1.1,1.5-1.5s1.4-0.6,2.5-0.6c1,0,1.8,0.2,2.4,0.5c0.6,0.3,1,0.8,1.3,1.4s0.5,1.2,0.6,2c0.1,0.8,0.1,1.6,0.1,2.5v14.8
	h7.2V23.7c0-1.7-0.2-3.1-0.7-4.3c-0.5-1.2-1.1-2.2-2-2.9c-0.8-0.7-1.9-1.3-3-1.6s-2.5-0.5-3.8-0.5c-1.8,0-3.4,0.4-4.7,1.3
	c-1.3,0.9-2.4,1.9-3.2,3c-0.7-1.6-1.7-2.7-3.1-3.4c-1.4-0.6-2.9-1-4.5-1c-1.7,0-3.2,0.4-4.6,1.1c-1.3,0.7-2.5,1.8-3.4,3.1h-0.1
	C11,21.2,5.4,21.7,5.4,21.7z"/>
<path fill-rule="evenodd" clip-rule="evenodd" fill="#333333" d="M72.2,11h7.2V5.1h-7.2V11z M79.3,12.6h-7.2v22.7h7.2V12.6z"/>
<path fill-rule="evenodd" clip-rule="evenodd" fill="#333333" d="M133.3,24.7h-11.7c0-0.5,0.1-1.1,0.3-1.7c0.2-0.6,0.5-1.2,1-1.8
	c0.5-0.6,1.1-1.1,1.8-1.4c0.8-0.4,1.7-0.6,2.9-0.6c1.8,0,3.1,0.5,3.9,1.4C132.3,21.5,132.9,22.8,133.3,24.7z M121.6,29.2h18.9
	c0.1-2,0-4-0.5-5.8c-0.5-1.9-1.2-3.5-2.3-5c-1.1-1.4-2.4-2.6-4.1-3.5c-1.7-0.9-3.6-1.3-5.8-1.3c-2,0-3.8,0.4-5.4,1.1
	c-1.6,0.7-3,1.7-4.2,2.9s-2.1,2.7-2.7,4.4c-0.6,1.7-1,3.5-1,5.5c0,2,0.3,3.9,0.9,5.6c0.6,1.7,1.5,3.1,2.7,4.3
	c1.1,1.2,2.5,2.2,4.2,2.8c1.6,0.7,3.5,1,5.6,1c3,0,5.5-0.7,7.6-2c2.1-1.3,3.6-3.6,4.6-6.7h-4.1h-2.3c-0.1,0.5-0.4,1-0.9,1.5
	c-0.3,0.3-0.6,0.6-1,0.8c-1,0.7-2.3,1.1-3.7,1.1c-2,0-3.6-0.5-4.7-1.6C122.3,33.2,121.7,31.5,121.6,29.2z"/>
<path fill-rule="evenodd" clip-rule="evenodd" fill="#333333" d="M167.3,34.6c0.2,0.7,0.5,1.3,0.8,1.8c0.7,1.2,1.7,2.1,2.8,2.8
	c1.1,0.7,2.4,1.2,3.9,1.5c1.5,0.3,2.9,0.5,4.4,0.5c1.5,0,2.9-0.1,4.4-0.4c1.4-0.3,2.7-0.8,3.8-1.5c1.1-0.7,2-1.6,2.7-2.8
	c0.7-1.2,1-2.6,1-4.3c0-1.2-0.2-2.2-0.7-3.1c-0.5-0.8-1.1-1.5-1.9-2.1c-0.8-0.6-1.7-1-2.7-1.3c-1-0.3-2-0.6-3.1-0.9
	c-1-0.2-2-0.5-3-0.7c-1-0.2-1.8-0.4-2.6-0.7c-0.8-0.3-1.4-0.6-1.8-1c-0.5-0.4-0.7-0.9-0.7-1.6c0-0.5,0.1-1,0.4-1.3
	c0.3-0.3,0.6-0.6,1-0.7c0.4-0.2,0.8-0.3,1.3-0.3c0.5-0.1,0.9-0.1,1.3-0.1c1.3,0,2.4,0.2,3.3,0.7s1.5,1.4,1.6,2.8h6.8
	c-0.1-1.6-0.5-3-1.2-4c-0.7-1.1-1.6-1.9-2.6-2.6c-1-0.6-2.2-1.1-3.6-1.4c-1.3-0.3-2.7-0.4-4.1-0.4c-1.4,0-2.8,0.1-4.1,0.4
	c-1.3,0.3-2.6,0.7-3.6,1.3c-1.1,0.6-1.9,1.5-2.6,2.6c-0.7,1.1-1,2.5-1,4.1c0,1.1,0.2,2.1,0.7,2.9c0.5,0.8,1.1,1.5,1.9,2
	c0.8,0.5,1.7,0.9,2.7,1.3c1,0.3,2,0.6,3.1,0.8c2.6,0.5,4.6,1.1,6,1.6c1.4,0.5,2.1,1.3,2.1,2.4c0,0.6-0.2,1.2-0.5,1.6
	c-0.3,0.4-0.7,0.8-1.1,1s-1,0.4-1.5,0.6c-0.6,0.1-1.1,0.2-1.6,0.2c-0.7,0-1.4-0.1-2-0.3c-0.7-0.2-1.2-0.4-1.7-0.8
	c-0.3-0.2-0.6-0.5-0.9-0.8H167.3z"/>
<path fill-rule="evenodd" clip-rule="evenodd" fill="#333333" d="M204.5,43.8l10.9-29.4H208l-5.7,17.9h-0.1l-3.6-10.4h-7.3l6.5,17
	c0.2,0.5,0.3,1,0.3,1.6c0,0.8-0.2,1.5-0.7,2.1c-0.5,0.6-1.2,1-2.1,1.1c-0.7,0-1.4,0-2.1-0.1l-2.1,0l0,6c0.7,0.1,3.7,0,4.4,0
	c2.5,0,4.4-0.5,5.8-1.4C202.7,47.4,203.7,45.9,204.5,43.8z"/>
<path fill-rule="evenodd" clip-rule="evenodd" fill="#D00000" d="M88.6,37.7H71.9c-4.4,0-7.9,3.5-7.9,7.9s3.5,7.9,7.9,7.9h16.7
	c4.4,0,7.9-3.5,7.9-7.9S92.9,37.7,88.6,37.7z"/>
<path fill-rule="evenodd" clip-rule="evenodd" fill="#FFFFFF" d="M72.7,45.5c0.9,0,1.5-0.6,1.5-1.5c0-0.9-0.5-1.5-1.4-1.5h-1.5v3
	H72.7z M69.7,41.7c0-0.3,0.2-0.5,0.5-0.5H73c1.6,0,2.8,1.1,2.8,2.8c0,1.7-1.1,2.9-2.8,2.9h-1.8v2.5c0,0.3-0.2,0.5-0.5,0.5h-0.6
	c-0.3,0-0.5-0.2-0.5-0.5V41.7z"/>
<path fill-rule="evenodd" clip-rule="evenodd" fill="#FFFFFF" d="M79.7,45.3c0.8,0,1.4-0.5,1.4-1.4c0-0.6-0.2-1-0.7-1.2
	c-0.2-0.1-0.5-0.1-0.9-0.1h-1.2v2.7H79.7z M76.7,41.7c0-0.3,0.2-0.5,0.5-0.5h2.4c0.9,0,1.3,0.1,1.7,0.2c0.9,0.4,1.5,1.2,1.5,2.4
	c0,1-0.5,2-1.5,2.4v0c0,0,0.1,0.1,0.3,0.5l1.4,2.6c0.2,0.4,0.1,0.6-0.4,0.6H82c-0.3,0-0.5-0.1-0.6-0.4l-1.5-2.9h-1.5v2.7
	c0,0.3-0.2,0.5-0.5,0.5h-0.6c-0.3,0-0.5-0.2-0.5-0.5V41.7z"/>
<path fill-rule="evenodd" clip-rule="evenodd" fill="#FFFFFF" d="M88.3,48.6c1.7,0,2.9-1.4,2.9-3.1c0-1.7-1.2-3-2.9-3
	s-2.9,1.3-2.9,3C85.5,47.3,86.7,48.6,88.3,48.6z M88.3,41.1c2.6,0,4.5,2,4.5,4.5c0,2.6-1.9,4.6-4.5,4.6c-2.6,0-4.5-2-4.5-4.6
	C83.8,43,85.7,41.1,88.3,41.1z"/>
<rect x="80.8" y="5.1" fill-rule="evenodd" clip-rule="evenodd" fill="#333333" width="7.2" height="30.3"/>
<path fill="#D00000" d="M115.8,41c0-6.6-6.2-6.3-6.2-6.3h-9.9l5.8-4.5c6.4-4.9,9.4-7.9,9.4-14v-0.1C115,9.4,110,5,102.6,5
	c-6.4,0-9.8,2.6-13.4,7.5l5.5,3.9c2.7-3.3,4.6-4.2,7.3-4.2c2.8,0,4.8,1.6,4.8,4.7c0,3-1.7,4.9-6.2,8.7l-11.6,9.9c0,0,0,0,0,0
	c2,0.1,4.4,0.4,6.6,3.2c1.1,1.1,2.4,1.9,3.9,2.4c1.4,0.4,2.9,0.7,4.4,0.7h11.7C115.8,41.5,115.8,41.1,115.8,41z"/>
<path fill="none" d="M61.1,29.4c-0.5,0.1-1.1,0.2-1.6,0.3c-0.6,0.1-1.1,0.2-1.7,0.3c-0.5,0.1-1.1,0.2-1.6,0.4
	c-0.5,0.2-1,0.4-1.4,0.7c-0.4,0.3-0.7,0.7-0.9,1.1c-0.2,0.4-0.4,1-0.4,1.7c0,0.6,0.1,1.2,0.4,1.6c0.2,0.4,0.6,0.8,1,1
	c0.4,0.3,0.9,0.4,1.4,0.5c0.5,0.1,1.1,0.2,1.7,0.2c1.4,0,2.5-0.2,3.3-0.7c0.8-0.5,1.4-1,1.7-1.7c0.4-0.7,0.6-1.3,0.7-2
	c0.1-0.7,0.1-1.2,0.1-1.6v-2.7c-0.3,0.3-0.7,0.5-1.1,0.6C62.1,29.2,61.6,29.3,61.1,29.4z"/>
<path fill="#333333" d="M69.8,18c-0.7-1-1.6-1.7-2.7-2.3c-1.1-0.5-2.4-0.9-3.7-1.1c-1.4-0.2-2.7-0.3-4-0.3c-1.5,0-2.9,0.1-4.3,0.4
	c-1.4,0.3-2.7,0.8-3.9,1.4c-1.2,0.7-2.1,1.6-2.8,2.7c-0.6,0.9-0.9,1.9-1.1,3.1h7.3c0.2-0.8,0.6-1.5,1.2-1.9c0.8-0.6,1.9-0.9,3.4-0.9
	c0.6,0,1.2,0,1.8,0.1c0.6,0.1,1,0.3,1.5,0.5c0.4,0.3,0.8,0.6,1,1.1c0.3,0.5,0.4,1.1,0.4,1.9c0,0.7-0.2,1.3-0.7,1.7
	c-0.5,0.4-1.1,0.7-1.9,0.9c-0.8,0.2-1.7,0.4-2.8,0.5c-1,0.1-2.1,0.2-3.2,0.4c-1.1,0.2-2.2,0.4-3.2,0.7c-1.1,0.3-2,0.7-2.8,1.3
	c-0.8,0.6-1.5,1.3-2,2.3c-0.5,1-0.8,2.2-0.8,3.7c0,1.4,0.2,2.5,0.7,3.5c0.5,1,1.1,1.8,1.9,2.4c0.8,0.6,1.8,1.1,2.8,1.4
	c1.1,0.3,2.2,0.5,3.5,0.5c1.6,0,3.2-0.2,4.8-0.7c1.6-0.5,2.9-1.3,4.1-2.5c2.3-2.9,4.9-3.2,6.9-3.3V21.8C70.9,20.2,70.5,18.9,69.8,18
	z M63.7,31.1c0,0.4,0,0.9-0.1,1.6c-0.1,0.7-0.3,1.3-0.7,2c-0.4,0.7-0.9,1.2-1.7,1.7c-0.8,0.5-1.9,0.7-3.3,0.7
	c-0.6,0-1.1-0.1-1.7-0.2c-0.5-0.1-1-0.3-1.4-0.5c-0.4-0.3-0.7-0.6-1-1c-0.2-0.4-0.4-1-0.4-1.6c0-0.7,0.1-1.2,0.4-1.7
	c0.2-0.4,0.6-0.8,0.9-1.1c0.4-0.3,0.8-0.5,1.4-0.7c0.5-0.2,1.1-0.3,1.6-0.4c0.6-0.1,1.1-0.2,1.7-0.3c0.6-0.1,1.1-0.2,1.6-0.3
	c0.5-0.1,1-0.2,1.5-0.4c0.5-0.2,0.8-0.4,1.1-0.6V31.1z"/>
<path fill="none" d="M156.3,29.4c-0.5,0.1-1.1,0.2-1.6,0.3c-0.6,0.1-1.1,0.2-1.7,0.3c-0.5,0.1-1.1,0.2-1.6,0.4
	c-0.5,0.2-1,0.4-1.4,0.7c-0.4,0.3-0.7,0.7-0.9,1.1c-0.2,0.4-0.4,1-0.4,1.7c0,0.6,0.1,1.2,0.4,1.6c0.2,0.4,0.6,0.8,1,1
	c0.4,0.3,0.9,0.4,1.4,0.5c0.5,0.1,1.1,0.2,1.7,0.2c1.4,0,2.5-0.2,3.3-0.7c0.8-0.5,1.4-1,1.7-1.7c0.4-0.7,0.6-1.3,0.7-2
	c0.1-0.7,0.1-1.2,0.1-1.6v-2.7c-0.3,0.3-0.7,0.5-1.1,0.6C157.3,29.2,156.8,29.3,156.3,29.4z"/>
<path fill="#333333" d="M165,18c-0.7-1-1.6-1.7-2.7-2.3c-1.1-0.5-2.4-0.9-3.7-1.1c-1.4-0.2-2.7-0.3-4-0.3c-1.5,0-2.9,0.1-4.3,0.4
	c-1.4,0.3-2.7,0.8-3.9,1.4c-1.2,0.7-2.1,1.6-2.8,2.7c-0.6,0.9-0.9,1.9-1.1,3.1h7.3c0.2-0.8,0.6-1.5,1.2-1.9c0.8-0.6,1.9-0.9,3.4-0.9
	c0.6,0,1.2,0,1.8,0.1c0.6,0.1,1,0.3,1.5,0.5c0.4,0.3,0.8,0.6,1,1.1c0.3,0.5,0.4,1.1,0.4,1.9c0,0.7-0.2,1.3-0.7,1.7
	c-0.5,0.4-1.1,0.7-1.9,0.9c-0.8,0.2-1.7,0.4-2.8,0.5c-1,0.1-2.1,0.2-3.2,0.4c-1.1,0.2-2.2,0.4-3.2,0.7c-1.1,0.3-2,0.7-2.8,1.3
	c-0.8,0.6-1.5,1.3-2,2.3c-0.5,1-0.8,2.2-0.8,3.7c0,1.4,0.2,2.5,0.7,3.5c0.5,1,1.1,1.8,1.9,2.4c0.8,0.6,1.8,1.1,2.8,1.4
	c1.1,0.3,2.2,0.5,3.5,0.5c1.6,0,3.2-0.2,4.8-0.7c1.6-0.5,2.9-1.3,4.1-2.5c2.3-2.9,4.9-3.2,6.9-3.3V21.8
	C166.1,20.2,165.8,18.9,165,18z M158.9,31.1c0,0.4,0,0.9-0.1,1.6c-0.1,0.7-0.3,1.3-0.7,2c-0.4,0.7-0.9,1.2-1.7,1.7
	c-0.8,0.5-1.9,0.7-3.3,0.7c-0.6,0-1.1-0.1-1.7-0.2c-0.5-0.1-1-0.3-1.4-0.5c-0.4-0.3-0.7-0.6-1-1c-0.2-0.4-0.4-1-0.4-1.6
	c0-0.7,0.1-1.2,0.4-1.7c0.2-0.4,0.6-0.8,0.9-1.1c0.4-0.3,0.8-0.5,1.4-0.7c0.5-0.2,1.1-0.3,1.6-0.4c0.6-0.1,1.1-0.2,1.7-0.3
	c0.6-0.1,1.1-0.2,1.6-0.3c0.5-0.1,1-0.2,1.5-0.4c0.5-0.2,0.8-0.4,1.1-0.6V31.1z"/>
</svg>
