<?xml version="1.0" encoding="utf-8"?>
<!-- Generator: Adobe Illustrator 19.1.0, SVG Export Plug-In . SVG Version: 6.00 Build 0)  -->
<!DOCTYPE svg PUBLIC "-//W3C//DTD SVG 1.1//EN" "http://www.w3.org/Graphics/SVG/1.1/DTD/svg11.dtd">
<svg version="1.1" id="Camada_1" xmlns="http://www.w3.org/2000/svg" xmlns:xlink="http://www.w3.org/1999/xlink" x="0px" y="0px"
	 width="220px" height="56px" viewBox="0 0 220 56" enable-background="new 0 0 220 56" xml:space="preserve" preserveAspectRatio="xMidYMid slice">
<path fill-rule="evenodd" clip-rule="evenodd" fill="#44748B" d="M74.8,52.1v-7.8l0,0c2.3,0,4.3-0.9,5.8-2.7l4.7,6.3
	C82.4,50.7,78.9,52.1,74.8,52.1L74.8,52.1L74.8,52.1z M74.8,39v-5.8h6.7c-1.4-2.7-3.6-4.1-6.7-4.1l0,0v-7.8l0,0
	c4.3,0,7.9,1.5,10.9,4.5c3,3,4.5,6.6,4.5,10.9c0,0.8-0.1,1.5-0.2,2.3L74.8,39z M74.8,21.4v7.8c-3.1,0-5.3,1.4-6.7,4.1h6.7V39l-7.3,0
	c0.5,1.6,1.4,2.9,2.8,3.9c1.3,1,2.8,1.5,4.5,1.5v7.8c-4.3,0-8-1.5-10.9-4.5c-1.8-1.8-3-3.8-3.7-6v-9.9c0.7-2.2,2-4.2,3.7-6
	C66.9,22.8,70.5,21.4,74.8,21.4L74.8,21.4z M60.1,23l0.7-1.6h-0.7V23z M18.8,51.2H11V5.7h7.8V51.2L18.8,51.2z M60.1,21.4V23
	L46.7,51.2L32.3,21.4h9.2l5.2,12.2L52,21.4H60.1L60.1,21.4z M60.1,31.8c-0.5,1.5-0.7,3.2-0.7,4.9c0,1.8,0.2,3.4,0.7,5V31.8
	L60.1,31.8z M31.2,14.8c0,1.3-0.4,2.4-1.3,3.3c-0.9,0.9-2,1.4-3.3,1.4c-1.3,0-2.4-0.5-3.3-1.4c-0.9-0.9-1.4-2-1.4-3.3
	c0-1.3,0.5-2.4,1.4-3.3c0.9-0.9,2-1.3,3.3-1.3c1.3,0,2.3,0.5,3.2,1.4C30.7,12.5,31.2,13.5,31.2,14.8L31.2,14.8z M30.5,51.2h-7.8
	V21.4h7.8V51.2z"/>
<path fill-rule="evenodd" clip-rule="evenodd" fill="#1D4451" d="M124.1,36.5c0,4.3-1.5,7.9-4.5,10.9c-3,3-6.6,4.5-10.9,4.5l0,0
	v-7.8l0,0c2.1,0,3.9-0.7,5.4-2.2c1.5-1.5,2.2-3.3,2.2-5.4c0-2.1-0.7-3.9-2.2-5.3c-1.5-1.5-3.3-2.2-5.3-2.2l0,0v-7.8l0,0
	c4.3,0,7.9,1.5,10.9,4.5C122.7,28.6,124.1,32.2,124.1,36.5L124.1,36.5z M157.4,36.5c0,4.3-1.5,8-4.5,11c-3,3-6.6,4.5-11,4.5
	c-4.3,0-7.9-1.5-10.9-4.5c-3-3-4.5-6.6-4.5-10.9l0-15.3h7.8v15.3c0,2.1,0.7,3.9,2.2,5.4c1.5,1.5,3.3,2.2,5.4,2.2
	c2.1,0,3.9-0.7,5.4-2.2c1.5-1.5,2.2-3.3,2.2-5.4l0-15.3h7.8V36.5L157.4,36.5z M183.5,21.3l-12.2,22.4h9v7.5h-22.1l12.5-22.5h-10.3
	v-7.4H183.5L183.5,21.3z M209,21.3l-12.2,22.4h9v7.5h-22.1l12.5-22.5h-10.3v-7.4H209z M108.8,51.9c-4.3,0-8-1.5-10.9-4.5
	c-3-3-4.5-6.6-4.5-11l0-31h7.8v17.6c2.3-1.3,4.9-2,7.6-2v7.8c-2.1,0-3.9,0.7-5.4,2.2c-1.5,1.5-2.2,3.3-2.2,5.4
	c0,2.1,0.7,3.9,2.2,5.4c1.5,1.5,3.3,2.2,5.4,2.2V51.9z"/>
</svg>
